<svg width="14.999992" height="14.997070" viewBox="0 0 15 14.9971" fill="none" xmlns="http://www.w3.org/2000/svg" xmlns:xlink="http://www.w3.org/1999/xlink">
	<desc>
			Created with Pixso.
	</desc>
	<defs/>
	<path id="Vector" d="M14.9325 11.9546L14.8578 11.7295C14.681 11.2036 14.1014 10.6558 13.569 10.5112L11.5983 9.97314C11.0639 9.82764 10.3015 10.0229 9.91054 10.4141L9.19731 11.1274C6.6053 10.4268 4.57276 8.39404 3.8733 5.80273L4.58656 5.08936C4.97756 4.69824 5.17303 3.93701 5.02764 3.40283L4.49027 1.43115C4.34488 0.897461 3.79572 0.317871 3.27114 0.143066L3.04618 0.0673828C2.5206 -0.107422 1.77104 0.0693359 1.38006 0.460449L0.313179 1.52832C0.122581 1.71777 0.0007658 2.26025 0.0007658 2.26221C-0.0365496 5.64941 1.29163 8.91309 3.68764 11.3091C6.07777 13.6992 9.329 15.0254 12.7064 14.9966C12.7241 14.9966 13.2821 14.877 13.4727 14.6875L14.5396 13.6206C14.9305 13.2295 15.1074 12.48 14.9325 11.9546Z" fill="#000000" fill-opacity="1.000000" fill-rule="nonzero"/>
</svg>
