<svg width="102.000000" height="102.000000" viewBox="0 0 102 102" fill="none" xmlns="http://www.w3.org/2000/svg" xmlns:xlink="http://www.w3.org/1999/xlink">
	<desc>
			Created with Pixso.
	</desc>
	<defs>
		<clipPath id="clip5_179">
			<rect id="mbridelivery_99588 1" width="102.000000" height="102.000000" fill="white" fill-opacity="0"/>
		</clipPath>
	</defs>
	<g clip-path="url(#clip5_179)">
		<path id="Vector" d="M52.632 40.8003C52.19 40.814 51.765 40.9976 51.4522 41.3174L42.483 50.2593L36.958 44.751C35.411 43.1396 32.912 45.6284 34.527 47.1719L41.2692 53.897C41.939 54.5669 43.027 54.5669 43.7002 53.897L53.8832 43.7412C55.0052 42.6533 54.179 40.8003 52.6354 40.8003L52.632 40.8003ZM1.7 54.4004L11.9 54.4004C12.8418 54.4004 13.6 55.1587 13.6 56.1006C13.6 57.042 12.8418 57.8003 11.9 57.8003L1.7 57.8003C0.758194 57.8003 0 57.042 0 56.1006C0 55.1587 0.758194 54.4004 1.7 54.4004ZM1.7 40.8003L11.9 40.8003C12.8418 40.8003 13.6 41.5586 13.6 42.5005C13.6 43.4424 12.8418 44.2002 11.9 44.2002L1.7 44.2002C0.758194 44.2002 0 43.4424 0 42.5005C0 41.5586 0.758194 40.8003 1.7 40.8003ZM1.7 27.2002L11.9 27.2002C12.8418 27.2002 13.6 27.9585 13.6 28.9004C13.6 29.8423 12.8418 30.6006 11.9 30.6006L1.7 30.6006C0.758194 30.6006 0 29.8423 0 28.9004C0 27.9585 0.758194 27.2002 1.7 27.2002ZM83.3 64.6006C78.625 64.6006 74.8 68.4253 74.8 73.1006C74.8 77.7754 78.625 81.6006 83.3 81.6006C87.975 81.6006 91.8 77.7754 91.8 73.1006C91.8 68.4253 87.975 64.6006 83.3 64.6006ZM83.3 68.0005C86.1356 68.0005 88.4 70.2646 88.4 73.1006C88.4 75.936 86.1356 78.2002 83.3 78.2002C80.4644 78.2002 78.2 75.936 78.2 73.1006C78.2 70.2646 80.4644 68.0005 83.3 68.0005ZM39.1 64.6006C34.425 64.6006 30.6 68.4253 30.6 73.1006C30.6 77.7754 34.425 81.6006 39.1 81.6006C43.775 81.6006 47.6 77.7754 47.6 73.1006C47.6 68.4253 43.775 64.6006 39.1 64.6006ZM39.1 68.0005C41.9356 68.0005 44.2 70.2646 44.2 73.1006C44.2 75.936 41.9356 78.2002 39.1 78.2002C36.2644 78.2002 34 75.936 34 73.1006C34 70.2646 36.2644 68.0005 39.1 68.0005ZM22.1 20.4004C19.3052 20.4004 17 22.7056 17 25.5005L17 62.9004C17 65.6953 19.3052 68.0005 22.1 68.0005L28.9 68.0005C31.1984 68.0342 31.1984 64.5664 28.9 64.6006L22.1 64.6006C21.1276 64.6006 20.4 63.8726 20.4 62.9004L20.4 25.5005C20.4 24.5278 21.1276 23.8003 22.1 23.8003L66.3 23.8003C67.2724 23.8003 68 24.5278 68 25.5005L68 64.6006L49.3 64.6006C47.056 64.6006 47.0968 68.0342 49.3 68.0005L73.1 68.0005C75.344 68.0005 75.3236 64.6006 73.1 64.6006L71.4 64.6006L71.4 34.0005L85.7718 34.0005L98.6 54.0469L98.6 62.9004C98.6 63.8726 97.8724 64.6006 96.9 64.6006L93.5 64.6006C91.2764 64.6006 91.2764 68.0005 93.5 68.0005L96.9 68.0005C99.6948 68.0005 102 65.6953 102 62.9004L102 53.5503C102 53.2275 101.908 52.9043 101.735 52.6323L88.1348 31.3823C87.822 30.896 87.2848 30.6006 86.7 30.6006L71.4 30.6006L71.4 25.5005C71.4 22.7056 69.0948 20.4004 66.3 20.4004L22.1 20.4004Z" fill="#E05100" fill-opacity="1.000000" fill-rule="nonzero"/>
	</g>
</svg>
