<svg width="97.000000" height="97.000000" viewBox="0 0 97 97" fill="none" xmlns="http://www.w3.org/2000/svg" xmlns:xlink="http://www.w3.org/1999/xlink">
	<desc>
			Created with Pixso.
	</desc>
	<defs>
		<clipPath id="clip5_185">
			<rect id="quality_award_icon_152104 1" width="97.000000" height="97.000000" fill="white" fill-opacity="0"/>
		</clipPath>
	</defs>
	<g clip-path="url(#clip5_185)">
		<path id="Vector" d="M33.0966 48.2529L31.0836 62.7671C31.0096 63.3022 31.0822 63.8472 31.2939 64.3442C31.5055 64.8413 31.8481 65.2715 32.2852 65.5889C32.7223 65.9067 33.2374 66.0991 33.7755 66.147C34.3135 66.1943 34.8544 66.0947 35.3404 65.8589L48.4792 59.4604L61.6611 65.8604C62.1472 66.0957 62.6882 66.1948 63.2263 66.147C63.7643 66.0991 64.2792 65.9058 64.7161 65.5879C65.1529 65.2705 65.4953 64.8398 65.7067 64.3428C65.9181 63.8457 65.9905 63.3008 65.9163 62.7656L63.8916 48.293L74.0495 37.7358C74.424 37.3462 74.6858 36.8628 74.8069 36.3359C74.928 35.8096 74.9038 35.2603 74.7369 34.7466C74.5701 34.2324 74.2668 33.7739 73.8596 33.4189C73.4523 33.064 72.9562 32.8262 72.4244 32.7314L58.0333 30.1855L51.1302 17.2612C50.8759 16.7847 50.4968 16.3862 50.0336 16.1084C49.5703 15.8306 49.0402 15.6836 48.5 15.6836C47.9598 15.6836 47.4297 15.8306 46.9664 16.1084C46.5031 16.3862 46.1241 16.7847 45.8698 17.2612L39.0007 30.1602L24.5756 32.7314C24.0437 32.8262 23.5477 33.064 23.1404 33.4189C22.7332 33.7739 22.4299 34.2324 22.263 34.7466C22.0962 35.2603 22.072 35.8096 22.1931 36.3359C22.3141 36.8628 22.5759 37.3462 22.9505 37.7358L33.0966 48.2529ZM39.5364 33.1445C39.9803 33.0654 40.4004 32.8862 40.7648 32.6211C41.1292 32.3555 41.4284 32.0107 41.6396 31.6123L48.4556 18.6865L49.7936 17.9741L48.4571 18.6875L55.3603 31.6118C55.5719 32.0107 55.8716 32.356 56.2366 32.6211C56.6017 32.8867 57.0225 33.0654 57.467 33.144L71.8655 35.6333L61.709 46.1909C61.3944 46.5156 61.1582 46.9072 61.0184 47.3369C60.8786 47.7666 60.8389 48.2227 60.9023 48.6699L62.9835 63.1323L49.8031 56.7339C49.3976 56.5352 48.9521 56.4316 48.5006 56.4316C48.0491 56.4316 47.6035 56.5352 47.1981 56.7339L34.0859 63.1826L36.1003 48.6655C36.1627 48.2192 36.1225 47.7642 35.9827 47.3354C35.8429 46.9062 35.6072 46.5151 35.2936 46.1909L25.1086 35.7148L39.5364 33.1445Z" fill="#E05100" fill-opacity="1.000000" fill-rule="nonzero"/>
		<path id="Vector" d="M85.3297 49.7104C86.0304 46.8335 86.3865 43.8833 86.3906 40.9219C86.3906 30.8726 82.3986 21.2349 75.2927 14.1294C68.1869 7.02344 58.5493 3.03125 48.5 3.03125C38.4508 3.03125 28.8132 7.02344 21.7073 14.1294C14.6014 21.2349 10.6094 30.8726 10.6094 40.9219C10.6133 43.8828 10.9698 46.833 11.6714 49.71C8.73987 52.3018 6.81555 55.8438 6.23663 59.7134C5.65771 63.583 6.46118 67.5332 8.50586 70.8691C10.5505 74.2051 13.7056 76.7139 17.4166 77.9541C21.1276 79.1948 25.1571 79.0874 28.7969 77.6514L28.7969 92.4531C28.7969 92.6733 28.8448 92.8906 28.9374 93.0903C29.03 93.29 29.1649 93.4668 29.3328 93.6094C29.5007 93.7515 29.6975 93.8555 29.9097 93.9141C30.1218 93.9727 30.3442 93.9839 30.5612 93.9478L48.5 90.9585L66.4388 93.9478C66.521 93.9614 66.6042 93.9683 66.6875 93.9688C67.0895 93.9688 67.475 93.8091 67.7592 93.5249C68.0435 93.2407 68.2031 92.855 68.2031 92.4531L68.2031 77.6514C71.8424 79.0845 75.8701 79.1895 79.5791 77.9482C83.2881 76.707 86.4413 74.1987 88.4853 70.8643C90.5292 67.5298 91.3333 63.5815 90.7562 59.7134C90.1791 55.8452 88.2579 52.3037 85.3297 49.7104ZM48.5 6.0625C57.7421 6.07275 66.6028 9.74854 73.1379 16.2837C79.6732 22.8193 83.3491 31.6797 83.3594 40.9219C83.3621 43.9395 82.9664 46.9443 82.1826 49.8589C80.1001 57.668 75.3781 64.5151 68.8188 69.2373C67.8876 69.9072 66.9233 70.5308 65.9297 71.104L65.9274 71.106L65.9164 71.1128C65.1778 71.5498 64.3978 71.9419 63.7339 72.2676C58.9888 74.5796 53.7798 75.7808 48.5015 75.7812C43.2233 75.7817 38.0142 74.5806 33.2689 72.269C32.6028 71.9419 31.8228 71.5498 31.0712 71.104C30.0749 70.5293 29.108 69.9043 28.1744 69.2324C21.6161 64.5083 16.8958 57.6592 14.8159 49.8491C14.0326 46.938 13.6375 43.9365 13.6406 40.9219C13.6509 31.6797 17.3269 22.8193 23.8621 16.2837C30.3972 9.74854 39.2579 6.07275 48.5 6.0625ZM22.7344 75.7812C20.0971 75.7817 17.5163 75.0176 15.3045 73.5811C13.0927 72.1445 11.3447 70.0977 10.2723 67.6885C9.19989 65.2793 8.84906 62.6104 9.26221 60.0059C9.67535 57.4009 10.8348 54.9722 12.6002 53.0127C12.6315 53.1064 12.6744 53.1948 12.7062 53.2886C13.0274 54.2183 13.3766 55.1377 13.7692 56.0366C13.8025 56.1133 13.8403 56.188 13.8742 56.2642C14.2723 57.1597 14.7046 58.0386 15.1711 58.8999C15.2123 58.9756 15.2498 59.0542 15.2924 59.1304C15.7678 59.9941 16.2831 60.8359 16.824 61.6606C16.9076 61.7881 16.9893 61.9165 17.0745 62.043C17.6136 62.8438 18.1827 63.6235 18.7818 64.3813C18.8787 64.5039 18.9769 64.6245 19.0754 64.7461C19.6927 65.5093 20.3353 66.2515 21.0099 66.9653C21.0825 67.042 21.1583 67.1157 21.2315 67.1929C22.6584 68.6772 24.204 70.0435 25.853 71.2769C25.9507 71.3501 26.046 71.4258 26.1447 71.498C26.9294 72.0732 27.7377 72.6162 28.5697 73.1274C28.6475 73.1758 28.719 73.2329 28.7971 73.2803L28.7971 74.3608C26.9124 75.2949 24.8376 75.7808 22.7344 75.7812ZM31.8281 75.2661L31.8281 74.9375L31.9342 74.9907C36.631 77.2905 41.7584 78.5781 46.9844 78.7705L46.9844 88.1382L31.8281 90.6636L31.8281 75.2661ZM65.1719 90.6636L50.0156 88.1382L50.0156 78.7705C55.2421 78.5781 60.37 77.29 65.0668 74.9893C65.1008 74.9731 65.1364 74.9556 65.1719 74.9375L65.1719 90.6636ZM74.2656 75.7812C72.1624 75.7803 70.0877 75.2944 68.2031 74.3604L68.2031 73.2803C68.2777 73.2349 68.3458 73.1807 68.42 73.1348C69.2509 72.6206 70.0601 72.0767 70.8476 71.5034C70.9537 71.4263 71.0557 71.3447 71.1607 71.2661C71.9774 70.6543 72.7741 70.0186 73.5367 69.3447L73.5495 69.333C74.3154 68.6558 75.0466 67.9419 75.7546 67.2061C75.8345 67.123 75.9169 67.0435 75.9962 66.9595C76.6676 66.249 77.3068 65.5103 77.921 64.7515C78.0211 64.6279 78.1209 64.5049 78.2194 64.3804C78.8192 63.6206 79.3896 62.8394 79.9306 62.0371C80.0115 61.917 80.0891 61.7944 80.1687 61.6733C80.7155 60.8398 81.236 59.9907 81.7161 59.1167C81.7486 59.0576 81.7775 58.9971 81.8096 58.938C82.2927 58.0479 82.7399 57.1382 83.1514 56.21C83.174 56.1587 83.1992 56.1094 83.2216 56.0586C83.6232 55.1396 83.9805 54.2012 84.3074 53.251C84.3351 53.1704 84.3724 53.0938 84.3995 53.0127C86.1649 54.9717 87.3245 57.4009 87.7376 60.0054C88.1508 62.6104 87.8 65.2788 86.7276 67.6885C85.6552 70.0977 83.9073 72.1445 81.6955 73.5811C79.4837 75.0171 76.9029 75.7817 74.2656 75.7812Z" fill="#E05100" fill-opacity="1.000000" fill-rule="nonzero"/>
	</g>
</svg>
