<svg width="90.000000" height="90.000000" viewBox="0 0 90 90" fill="none" xmlns="http://www.w3.org/2000/svg" xmlns:xlink="http://www.w3.org/1999/xlink">
	<desc>
			Created with Pixso.
	</desc>
	<defs>
		<clipPath id="clip4_53">
			<rect id="clipboard_120835 1" width="90.000000" height="90.000000" fill="white" fill-opacity="0"/>
		</clipPath>
	</defs>
	<rect id="clipboard_120835 1" width="90.000000" height="90.000000" fill="#FFFFFF" fill-opacity="0"/>
	<g clip-path="url(#clip4_53)">
		<path id="Vector" d="M25.0166 19.9805C25.793 19.9805 26.4229 20.6104 26.4229 21.3867C26.4229 22.1631 25.793 22.793 25.0166 22.793L22.793 22.793L22.793 78.1055L67.2071 78.1055L67.2071 22.793L64.9805 22.793C64.2041 22.793 63.5742 22.1631 63.5742 21.3867C63.5742 20.6104 64.2041 19.9805 64.9805 19.9805L68.5781 19.9805L68.6133 19.9805C69.3897 19.9805 70.0196 20.6104 70.0196 21.3867L70.0196 79.4766L70.0196 79.5146C70.0196 80.291 69.3897 80.9209 68.6133 80.9209L21.4218 80.9209L21.3866 80.9209C20.6102 80.9209 19.9803 80.291 19.9803 79.5146L19.9803 21.4219L19.9803 21.3867C19.9803 20.6104 20.6102 19.9805 21.3866 19.9805L25.0166 19.9805Z" fill="#E05100" fill-opacity="1.000000" fill-rule="nonzero"/>
		<path id="Vector" d="M37.7343 5.45508C38.5077 5.45508 39.1347 6.08203 39.1347 6.85547C39.1347 7.62891 38.5077 8.25586 37.7343 8.25586L33.6914 8.25586L33.6914 19.9805L56.3085 19.9805L56.3085 8.25586L52.2656 8.25293C51.4919 8.25293 50.8652 7.62598 50.8652 6.85254C50.8652 6.0791 51.4922 5.45215 52.2656 5.45215L57.571 5.45508L57.7148 5.44922C58.4911 5.44922 59.121 6.0791 59.121 6.85547L59.121 21.3516L59.121 21.3867C59.121 22.1631 58.4911 22.793 57.7148 22.793L32.3204 22.793L32.2851 22.793C31.5088 22.793 30.8789 22.1631 30.8789 21.3867L30.8789 6.85547L30.8848 6.85547C30.8848 6.08203 31.5117 5.45508 32.2851 5.45508L37.7343 5.45508Z" fill="#E05100" fill-opacity="1.000000" fill-rule="nonzero"/>
		<path id="Vector" d="M43.1806 35.5078C42.4042 35.5078 41.7743 34.8779 41.7743 34.1016C41.7743 33.3252 42.4042 32.6953 43.1806 32.6953L61.3476 32.6953C62.124 32.6953 62.7539 33.3252 62.7539 34.1016C62.7539 34.8779 62.124 35.5078 61.3476 35.5078L43.1806 35.5078ZM43.1806 68.2031C42.4042 68.2031 41.7743 67.5732 41.7743 66.7969C41.7743 66.0205 42.4042 65.3906 43.1806 65.3906L61.3476 65.3906C62.124 65.3906 62.7539 66.0205 62.7539 66.7969C62.7539 67.5732 62.124 68.2031 61.3476 68.2031L43.1806 68.2031ZM43.1806 57.3047C42.4042 57.3047 41.7743 56.6748 41.7743 55.8984C41.7743 55.1221 42.4042 54.4922 43.1806 54.4922L61.3476 54.4922C62.124 54.4922 62.7539 55.1221 62.7539 55.8984C62.7539 56.6748 62.124 57.3047 61.3476 57.3047L43.1806 57.3047ZM43.1806 46.4062C42.4042 46.4062 41.7743 45.7764 41.7743 45C41.7743 44.2236 42.4042 43.5938 43.1806 43.5938L61.3476 43.5938C62.124 43.5938 62.7539 44.2266 62.7539 45C62.7539 45.7764 62.124 46.4062 61.3476 46.4062L43.1806 46.4062Z" fill="#E05100" fill-opacity="1.000000" fill-rule="nonzero"/>
		<path id="Vector" d="M29.121 34.0342C28.6582 33.416 28.7841 32.5371 29.4023 32.0718C30.0204 31.6084 30.8993 31.7349 31.3623 32.353L32.2851 33.5835L35.25 29.6279C35.7128 29.0103 36.5946 28.8843 37.2128 29.3467C37.8309 29.8096 37.9569 30.6914 37.4941 31.3071L33.4218 36.7354L33.4071 36.7559C33.328 36.8613 33.2373 36.9551 33.1259 37.0371C32.5077 37.5 31.6288 37.3745 31.1659 36.7559L29.121 34.0342Z" fill="#E05100" fill-opacity="1.000000" fill-rule="nonzero"/>
		<path id="Vector" d="M29.121 44.9326C28.6582 44.3145 28.7841 43.4355 29.4023 42.9702C30.0204 42.5068 30.8993 42.6333 31.3623 43.2515L32.2851 44.4819L35.25 40.5264C35.7128 39.9087 36.5946 39.7827 37.2128 40.2451C37.8309 40.708 37.9569 41.5898 37.4941 42.208L33.4218 47.6367L33.4071 47.6572C33.328 47.7627 33.2373 47.8564 33.1259 47.939C32.5077 48.4014 31.6288 48.2759 31.1659 47.6572L29.121 44.9326Z" fill="#E05100" fill-opacity="1.000000" fill-rule="nonzero"/>
		<path id="Vector" d="M29.121 55.8311C28.6582 55.2129 28.7841 54.334 29.4023 53.8687C30.0204 53.4058 30.8993 53.5317 31.3623 54.1499L32.2851 55.3804L35.25 51.4248C35.7128 50.8071 36.5946 50.6812 37.2128 51.1436C37.8309 51.6064 37.9569 52.4883 37.4941 53.1064L33.4218 58.5352L33.4071 58.5557C33.328 58.6611 33.2373 58.7549 33.1259 58.8369C32.5077 59.2998 31.6288 59.1738 31.1659 58.5557L29.121 55.8311Z" fill="#E05100" fill-opacity="1.000000" fill-rule="nonzero"/>
		<path id="Vector" d="M29.121 66.7295C28.6582 66.1118 28.7841 65.2324 29.4023 64.7671C30.0204 64.3042 30.8993 64.4302 31.3623 65.0483L32.2851 66.2788L35.25 62.3237C35.7128 61.7056 36.5946 61.5791 37.2128 62.042C37.8309 62.5049 37.9569 63.3867 37.4941 64.0049L33.4218 69.4336L33.4071 69.4541C33.328 69.5596 33.2373 69.6533 33.1259 69.7354C32.5077 70.1982 31.6288 70.0723 31.1659 69.4541L29.121 66.7295Z" fill="#E05100" fill-opacity="1.000000" fill-rule="nonzero"/>
		<path id="Vector" d="M25.0195 10.8984C25.7959 10.8984 26.4258 11.5283 26.4258 12.3047C26.4258 13.0811 25.7959 13.7109 25.0195 13.7109L15.9375 13.7109C15.331 13.7109 14.7715 13.9629 14.3672 14.3672C13.9628 14.7715 13.7109 15.3311 13.7109 15.9375L13.7109 84.9609C13.7109 85.5732 13.9599 86.1328 14.3614 86.5312L14.3672 86.5371C14.7656 86.9385 15.3252 87.1875 15.9375 87.1875L74.0625 87.1875C74.6777 87.1875 75.2344 86.9385 75.6327 86.5371L75.6386 86.5312C76.04 86.1328 76.2891 85.5732 76.2891 84.9609L76.2891 15.9375C76.2891 15.3252 76.0402 14.7656 75.6386 14.3672L75.6359 14.3643L75.6329 14.3672C75.2286 13.9629 74.672 13.7109 74.0627 13.7109L64.9807 13.7109C64.2043 13.7109 63.5744 13.0811 63.5744 12.3047C63.5744 11.5283 64.2043 10.8984 64.9807 10.8984L74.0627 10.8984C75.4484 10.8984 76.7114 11.4668 77.6223 12.3779L77.6194 12.3809C78.5334 13.2949 79.1018 14.5576 79.1018 15.9375L79.1018 84.9609C79.1018 86.3408 78.5363 87.6006 77.6223 88.5146L77.6164 88.5205C76.7023 89.4346 75.4425 90 74.0627 90L15.9377 90C14.5578 90 13.2981 89.4346 12.3841 88.5205L12.3782 88.5146C11.464 87.6006 10.8985 86.3408 10.8985 84.9609L10.8985 15.9375C10.8985 14.5518 11.4668 13.2891 12.3781 12.3779C13.2893 11.4668 14.5519 10.8984 15.9376 10.8984L25.0195 10.8984Z" fill="#E05100" fill-opacity="1.000000" fill-rule="nonzero"/>
		<path id="Vector" d="M45 0C46.134 0 47.1679 0.46582 47.915 1.20996L47.9209 1.21582C48.665 1.96289 49.1308 2.99414 49.1308 4.13086C49.1308 5.26465 48.6648 6.29883 47.9209 7.0459L47.9181 7.04883L47.9209 7.05176C47.1767 7.79883 46.1427 8.26172 45 8.26172C43.8574 8.26172 42.8233 7.7959 42.0791 7.05176C41.332 6.30762 40.8692 5.27051 40.8692 4.13086C40.8692 2.99414 41.335 1.96289 42.082 1.21289L42.0791 1.20996C42.8261 0.46582 43.8603 0 45 0ZM45.9375 3.19922L45.9316 3.19336C45.6943 2.95898 45.3661 2.8125 45 2.8125C44.6367 2.8125 44.3057 2.96191 44.0684 3.19922L44.0654 3.19629L44.0625 3.19922C43.831 3.43066 43.6816 3.76465 43.6816 4.12793C43.6816 4.49072 43.831 4.82227 44.0683 5.05957C44.3056 5.29688 44.6366 5.44629 44.9999 5.44629C45.3632 5.44629 45.6942 5.29688 45.9315 5.05957L45.9344 5.0625C46.1687 4.8252 46.3153 4.49414 46.3153 4.12793C46.3183 3.76758 46.1718 3.43652 45.9375 3.19922Z" fill="#E05100" fill-opacity="1.000000" fill-rule="nonzero"/>
	</g>
</svg>
