<svg width="90.000000" height="90.000000" viewBox="0 0 90 90" fill="none" xmlns="http://www.w3.org/2000/svg" xmlns:xlink="http://www.w3.org/1999/xlink">
	<desc>
			Created with Pixso.
	</desc>
	<defs>
		<clipPath id="clip5_112">
			<rect id="user-4_icon-icons.com_63829 1" width="90.000000" height="90.000000" fill="white" fill-opacity="0"/>
		</clipPath>
	</defs>
	<rect id="user-4_icon-icons.com_63829 1" width="90.000000" height="90.000000" fill="#FFFFFF" fill-opacity="0"/>
	<g clip-path="url(#clip5_112)">
		<path id="path-1_62_" d="M85.14 90C83.938 90 82.9626 89.0249 82.9626 87.8228C82.9626 66.8892 65.9337 49.8604 45 49.8604C24.0663 49.8604 7.03738 66.8892 7.03738 87.8228C7.03738 89.0249 6.06192 90 4.85999 90C3.65659 90 2.68256 89.0249 2.68256 87.8228C2.68256 64.4883 21.6667 45.5054 45 45.5054C68.3332 45.5054 87.3174 64.4883 87.3174 87.8228C87.3174 89.0249 86.3419 90 85.14 90Z" fill="#E05100" fill-opacity="1.000000" fill-rule="nonzero"/>
		<path id="path-2_62_" d="M44.6733 48.2412C31.3737 48.2412 20.5533 37.4209 20.5533 24.1201C20.5533 10.8203 31.3737 0 44.6733 0C57.9745 0 68.7948 10.8203 68.7948 24.1201C68.7948 37.4209 57.9745 48.2412 44.6733 48.2412ZM44.6733 4.35498C33.7761 4.35498 24.9082 13.2212 24.9082 24.1201C24.9082 35.02 33.7761 43.8867 44.6733 43.8867C55.5735 43.8867 64.4399 35.02 64.4399 24.1201C64.4399 13.2212 55.5735 4.35498 44.6733 4.35498Z" fill="#E05100" fill-opacity="1.000000" fill-rule="nonzero"/>
		<path id="path-3_50_" d="M45.3513 80.459C40.0355 80.459 35.7111 76.1333 35.7111 70.8174C35.7111 65.5015 40.0355 61.1758 45.3513 61.1758C50.6671 61.1758 54.9929 65.5015 54.9929 70.8174C54.9929 76.1333 50.6671 80.459 45.3513 80.459ZM45.3513 65.5308C42.4365 65.5308 40.066 67.9023 40.066 70.8174C40.066 73.7324 42.4365 76.104 45.3513 76.104C48.2661 76.104 50.6381 73.7324 50.6381 70.8174C50.6381 67.9023 48.2661 65.5308 45.3513 65.5308Z" fill="#E05100" fill-opacity="1.000000" fill-rule="nonzero"/>
		<path id="path-4_30_" d="M58.2111 85.2939C57.6537 85.2939 57.0963 85.082 56.671 84.6567L50.7411 78.7256C49.8905 77.8765 49.8905 76.4976 50.7411 75.647C51.5918 74.7959 52.9694 74.7959 53.82 75.647L59.7499 81.5781C60.6005 82.4272 60.6005 83.8062 59.7499 84.6567C59.3245 85.082 58.7671 85.2939 58.2111 85.2939Z" fill="#E05100" fill-opacity="1.000000" fill-rule="nonzero"/>
	</g>
</svg>
