<svg width="103.000000" height="103.000000" viewBox="0 0 103 103" fill="none" xmlns="http://www.w3.org/2000/svg" xmlns:xlink="http://www.w3.org/1999/xlink">
	<desc>
			Created with Pixso.
	</desc>
	<defs>
		<clipPath id="clip5_182">
			<rect id="mbricash_99554 1" width="103.000000" height="103.000000" fill="white" fill-opacity="0"/>
		</clipPath>
	</defs>
	<g clip-path="url(#clip5_182)">
		<path id="Vector" d="M18.8833 17.167C16.6345 17.167 16.6173 20.6348 18.8833 20.6001L94.4167 20.6001C95.3986 20.6001 96.1333 21.335 96.1333 22.3169L96.1333 66.9502C96.1333 69.2163 99.5667 69.2163 99.5667 66.9502L99.5667 22.3169C99.5667 19.4946 97.2389 17.167 94.4167 17.167L18.8833 17.167ZM12.0167 24.0337C9.77127 24.0337 9.77127 27.4668 12.0167 27.4668L87.55 27.4668C88.5319 27.4668 89.2667 28.2017 89.2667 29.1836L89.2667 73.8169C89.2667 76.1001 92.7343 76.083 92.7 73.8169L92.7 29.1836C92.7 26.3613 90.3722 24.0337 87.55 24.0337L12.0167 24.0337ZM5.14999 30.9004C2.32779 30.9004 0 33.228 0 36.0503L0 77.2505C0 80.0728 2.32779 82.4004 5.14999 82.4004L80.6833 82.4004C83.5056 82.4004 85.8333 80.0728 85.8333 77.2505L85.8333 36.0503C85.8333 33.228 83.5056 30.9004 80.6833 30.9004L5.14999 30.9004ZM5.14999 34.3335L80.6833 34.3335C81.6653 34.3335 82.4 35.0684 82.4 36.0503L82.4 77.2505C82.4 78.2324 81.6653 78.9668 80.6833 78.9668L5.14999 78.9668C4.16806 78.9668 3.43332 78.2324 3.43332 77.2505L3.43332 36.0503C3.43332 35.0684 4.16806 34.3335 5.14999 34.3335ZM8.58334 37.7671C7.63574 37.7671 6.86667 38.5361 6.86667 39.4839L6.86667 46.3501C6.86667 48.6577 10.3 48.6025 10.3 46.3501L10.3 41.2002L15.45 41.2002C17.7572 41.2002 17.7023 37.7671 15.45 37.7671L8.58334 37.7671ZM42.9167 37.7671C32.5068 37.7671 24.0333 46.2402 24.0333 56.6504C24.0333 67.0601 32.5068 75.5337 42.9167 75.5337C53.3265 75.5337 61.8 67.0601 61.8 56.6504C61.8 46.2402 53.3265 37.7671 42.9167 37.7671ZM70.3833 37.7671C68.131 37.7671 68.0761 41.2002 70.3833 41.2002L75.5333 41.2002L75.5333 46.3501C75.5333 48.6025 78.9667 48.6577 78.9667 46.3501L78.9667 39.4839C78.9667 38.5361 78.1976 37.7671 77.25 37.7671L70.3833 37.7671ZM42.9167 41.2002C51.4656 41.2002 58.3667 48.1016 58.3667 56.6504C58.3667 65.1992 51.4656 72.1001 42.9167 72.1001C34.3677 72.1001 27.4667 65.1992 27.4667 56.6504C27.4667 48.1016 34.3677 41.2002 42.9167 41.2002ZM42.9167 44.6338C41.9656 44.6338 41.2 45.3994 41.2 46.3501L41.2 48.3896C39.2155 49.1108 37.7667 50.999 37.7667 53.2168C37.7667 56.0322 40.1013 58.3672 42.9167 58.3672C43.878 58.3672 44.6333 59.0947 44.6333 60.0835C44.6333 61.0723 43.878 61.8003 42.9167 61.8003L39.4833 61.8003C38.3229 61.7832 37.7667 62.6519 37.7667 63.5171C37.7667 64.3823 38.3229 65.251 39.4833 65.2339L41.2 65.2339L41.2 66.9502C41.2 67.9014 41.9656 68.667 42.9167 68.667C43.8677 68.667 44.6333 67.9014 44.6333 66.9502L44.6333 64.9111C46.6178 64.1899 48.0667 62.3018 48.0667 60.0835C48.0667 57.2686 45.732 54.9336 42.9167 54.9336C41.9553 54.9336 41.2 54.2056 41.2 53.2168C41.2 52.228 41.9553 51.5005 42.9167 51.5005L46.35 51.5005C47.5105 51.5176 48.0667 50.6489 48.0667 49.7837C48.0667 48.9185 47.5105 48.0498 46.35 48.0669L44.6333 48.0669L44.6333 46.3501C44.6333 45.3994 43.8677 44.6338 42.9167 44.6338ZM8.58334 65.2407C7.72501 65.2339 6.86667 65.7969 6.86667 66.9502L6.86667 73.8169C6.86667 74.7646 7.63574 75.5337 8.58334 75.5337L15.45 75.5337C17.7023 75.5337 17.7572 72.1001 15.45 72.1001L10.3 72.1001L10.3 66.9502C10.3 65.8242 9.44168 65.2476 8.58334 65.2407ZM77.25 65.2407C76.3917 65.2476 75.5333 65.8242 75.5333 66.9502L75.5333 72.1001L70.3833 72.1001C68.0761 72.1001 68.131 75.5337 70.3833 75.5337L77.25 75.5337C78.1976 75.5337 78.9667 74.7646 78.9667 73.8169L78.9667 66.9502C78.9667 65.7969 78.1083 65.2339 77.25 65.2407Z" fill="#E05100" fill-opacity="1.000000" fill-rule="nonzero"/>
	</g>
</svg>
